<?xml version="1.0" standalone="no"?>
<!DOCTYPE svg PUBLIC "-//W3C//DTD SVG 20010904//EN"
 "http://www.w3.org/TR/2001/REC-SVG-20010904/DTD/svg10.dtd">
<svg version="1.0" xmlns="http://www.w3.org/2000/svg"
 width="1758.000000pt" height="1758.000000pt" viewBox="0 0 1758.000000 1758.000000"
 preserveAspectRatio="xMidYMid meet">
<metadata>
Created by potrace 1.14, written by Peter Selinger 2001-2017
</metadata>
<g transform="translate(0.000000,1758.000000) scale(0.100000,-0.100000)"
fill="#000000" stroke="none">
<path d="M8745 13585 c-22 -20 -54 -49 -72 -65 -17 -17 -33 -30 -36 -30 -3 0
-5 19 -5 43 1 74 -1 79 -19 73 -10 -3 -36 -8 -58 -11 -22 -4 -44 -8 -50 -9 -5
-2 -28 -6 -50 -11 -22 -4 -47 -11 -55 -15 -8 -5 -28 -10 -45 -13 -16 -3 -46
-12 -65 -20 -38 -15 -61 -24 -72 -26 -41 -9 -307 -162 -351 -202 -11 -10 -43
-34 -72 -56 -30 -21 -54 -40 -55 -43 0 -3 -43 -50 -95 -104 -52 -54 -95 -105
-95 -112 0 -7 -4 -14 -8 -16 -36 -14 -192 -311 -218 -413 -1 -5 -9 -30 -17
-55 -9 -25 -19 -61 -22 -80 -3 -19 -8 -42 -11 -51 -2 -10 -6 -30 -9 -45 -2
-16 -6 -49 -9 -74 -4 -25 -8 -76 -10 -114 -2 -38 -8 -72 -13 -75 -9 -6 -57
-81 -59 -91 0 -3 -3 -12 -6 -20 -31 -82 -45 -340 -25 -475 23 -158 162 -320
301 -352 12 -2 28 -6 36 -8 8 -2 25 -4 38 -4 12 -1 22 -6 22 -11 0 -11 71
-161 80 -170 3 -3 11 -17 19 -32 8 -16 18 -28 23 -28 4 0 8 -5 8 -10 0 -23
115 -165 195 -241 85 -80 214 -179 235 -179 4 0 10 -4 12 -9 4 -13 191 -106
233 -117 6 -1 29 -9 53 -18 23 -8 42 -13 42 -9 0 3 6 1 13 -4 15 -12 112 -35
207 -49 47 -7 313 -12 324 -6 4 2 25 6 45 7 41 4 98 13 123 21 9 3 25 6 35 9
70 13 253 83 328 125 82 47 115 68 170 109 105 81 162 134 240 227 85 99 205
293 205 329 0 7 7 18 15 25 8 7 15 22 15 34 0 15 3 17 9 7 6 -9 21 -11 47 -8
133 18 245 99 313 227 18 33 30 60 26 60 -3 0 -1 9 5 20 16 30 20 76 20 244 1
157 -6 233 -22 254 -6 6 -7 12 -3 12 4 0 3 6 -3 13 -6 6 -11 15 -11 19 -3 18
-35 78 -43 78 -4 0 -8 6 -8 13 0 12 -64 73 -113 109 -12 9 -17 22 -13 40 2 14
2 29 -1 32 -3 3 -7 27 -8 53 -3 69 -26 196 -37 211 -6 6 -8 12 -5 12 3 0 -5
33 -19 73 -28 83 -123 277 -135 277 -5 0 -9 6 -9 14 0 8 -6 21 -13 28 -7 7
-21 27 -32 44 -61 96 -241 279 -361 367 -43 31 -83 58 -89 59 -5 2 -17 9 -27
17 -49 42 -338 171 -384 171 -8 0 -49 -25 -89 -55 -41 -30 -79 -55 -84 -55 -5
0 -8 32 -7 70 1 45 -2 74 -10 81 -6 5 -70 12 -140 15 l-129 5 -40 -36z"/>
<path d="M8170 9973 c-19 -8 -47 -22 -61 -29 -14 -7 -28 -11 -31 -8 -3 2 -11
-2 -18 -11 -7 -8 -20 -15 -29 -15 -9 0 -22 -5 -29 -12 -7 -7 -12 -8 -12 -2 0
5 -3 5 -8 -1 -4 -5 -52 -32 -107 -59 -55 -26 -140 -72 -190 -100 -49 -28 -126
-69 -170 -91 -44 -22 -82 -43 -85 -46 -3 -3 -23 -14 -45 -25 -22 -10 -43 -23
-47 -28 -4 -6 -8 -7 -8 -2 0 5 -6 4 -12 -2 -7 -5 -60 -34 -118 -64 -58 -31
-121 -65 -142 -76 -20 -11 -39 -18 -42 -15 -3 4 -6 1 -6 -5 0 -7 -4 -12 -10
-12 -5 0 -32 -13 -60 -30 -27 -16 -50 -26 -50 -22 0 4 -4 3 -8 -3 -4 -5 -47
-30 -97 -55 -49 -25 -92 -47 -95 -50 -3 -3 -25 -14 -50 -25 -25 -10 -52 -24
-60 -30 -23 -17 -207 -105 -219 -105 -6 0 -11 -4 -11 -10 0 -5 -8 -10 -18 -10
-10 0 -22 -3 -26 -7 -4 -4 -17 -8 -29 -8 -40 -2 -97 -17 -97 -25 0 -5 -10 -12
-22 -16 -31 -9 -89 -71 -113 -119 -11 -22 -22 -42 -25 -45 -3 -3 -18 -45 -35
-95 -16 -49 -38 -99 -48 -110 -16 -16 -57 -93 -62 -115 -1 -3 -7 -18 -15 -35
-34 -78 -40 -94 -60 -150 -12 -33 -26 -68 -31 -77 -5 -10 -9 -22 -9 -27 0 -5
-5 -22 -12 -38 -6 -15 -13 -37 -15 -48 -6 -28 -9 -38 -16 -55 -17 -42 -38
-115 -39 -136 -1 -13 -5 -24 -8 -24 -3 0 -7 -8 -8 -17 -2 -24 -10 -58 -13 -58
-1 0 -3 -11 -4 -23 -1 -13 -7 -40 -13 -60 -23 -82 -29 -109 -28 -135 1 -15 -1
-27 -5 -27 -3 0 -6 -6 -6 -12 -1 -12 -3 -28 -18 -108 -2 -14 -7 -45 -9 -70 -3
-25 -8 -63 -10 -85 -7 -53 -14 -123 -21 -214 -6 -68 -28 -131 -47 -131 -4 0
-15 -14 -24 -32 -28 -54 -18 -126 23 -166 11 -12 16 -12 30 0 13 10 15 10 9 0
-11 -18 -15 -191 -5 -224 4 -16 4 -30 -2 -34 -5 -3 -6 -11 -2 -17 4 -7 8 -34
10 -62 4 -72 20 -318 29 -430 3 -33 7 -89 9 -125 5 -78 11 -171 20 -305 4 -55
9 -122 10 -150 2 -27 4 -50 5 -50 1 0 3 -28 5 -62 2 -35 6 -88 9 -118 3 -30 9
-81 12 -112 3 -32 9 -85 14 -118 11 -76 23 -175 24 -197 0 -10 4 -18 9 -18 4
0 5 -4 2 -10 -3 -5 -1 -28 5 -51 8 -27 8 -44 2 -48 -8 -5 -2883 -7 -2932 -2
-8 1 19 15 61 30 71 27 217 98 229 111 3 3 21 17 40 30 55 39 59 41 129 110
69 68 151 163 151 176 0 4 9 17 19 28 25 27 132 233 161 311 12 33 27 71 33
85 12 29 15 45 19 80 3 25 3 25 -82 26 -76 0 -335 -27 -335 -36 0 -1 -78 -23
-150 -43 -5 -1 -16 -6 -22 -10 -7 -5 -13 -6 -13 -2 0 3 -14 -2 -31 -11 l-31
-16 7 84 c4 46 7 103 7 128 0 75 -15 255 -22 255 -1 0 -3 14 -5 30 -2 17 -7
46 -11 65 -4 19 -8 42 -9 50 -3 27 -16 60 -24 60 -4 0 -33 -16 -65 -35 -32
-19 -62 -35 -67 -35 -5 0 -9 -3 -9 -7 0 -5 -17 -19 -38 -33 -20 -14 -42 -32
-49 -40 -7 -8 -13 -12 -13 -8 0 7 -67 -52 -144 -127 -80 -78 -241 -295 -219
-295 4 0 4 -4 -2 -8 -23 -17 -96 -208 -109 -287 -3 -16 -8 -42 -11 -57 -12
-58 -14 -97 -14 -218 1 -141 3 -177 12 -186 3 -3 4 -11 1 -18 -2 -6 2 -48 11
-91 18 -96 19 -117 5 -95 -5 8 -10 11 -10 5 0 -7 -363 -10 -1070 -10 l-1070 1
2 -271 3 -270 510 -1 c281 -1 513 -2 518 -3 4 0 7 -28 7 -61 l0 -60 7745 0
7744 0 3 62 3 63 518 0 517 0 -2 270 -3 270 -1435 0 -1435 1 -1 632 c-1 444 2
635 10 639 6 4 32 8 58 8 27 1 53 6 58 11 13 13 19 171 7 205 -6 20 -16 28
-40 30 -18 2 -309 4 -648 4 -663 -1 -654 0 -645 -51 3 -13 0 -24 -5 -24 -6 0
-7 -5 -3 -11 3 -6 6 -40 6 -75 0 -76 10 -88 82 -89 28 -1 57 -4 62 -8 12 -7
13 -360 2 -387 -4 -8 -6 -26 -4 -40 1 -14 -2 -30 -7 -37 -5 -7 -5 -18 -1 -24
10 -16 11 -89 2 -95 -4 -3 -4 -15 0 -27 5 -12 7 -43 6 -69 -1 -27 1 -48 5 -48
4 0 8 -122 7 -272 l-1 -272 -860 -1 c-473 0 -868 1 -878 3 -11 3 -16 11 -13
21 3 9 8 36 11 60 3 23 8 57 11 75 6 36 11 69 20 146 3 30 8 63 10 73 2 10 6
46 9 80 3 34 8 78 10 97 5 41 13 142 20 254 3 43 8 82 11 87 3 5 0 9 -6 9 -6
0 -8 5 -3 13 4 6 8 26 9 42 2 29 8 114 20 285 3 47 7 105 8 130 1 25 5 50 9
57 4 6 3 14 -3 18 -6 4 -8 10 -5 15 6 9 13 78 20 195 2 33 6 107 10 165 4 58
8 119 9 135 0 17 5 33 11 37 7 5 7 8 0 8 -6 0 -12 32 -13 73 -1 39 1 67 5 60
21 -30 72 55 67 110 -3 31 -23 67 -57 105 -24 25 -26 34 -32 117 -8 102 -15
180 -21 210 -3 16 -7 47 -9 70 -2 22 -7 58 -11 80 -4 22 -8 51 -9 65 -2 14 -4
25 -5 25 -1 0 -3 9 -5 20 -2 11 -7 36 -10 55 -4 19 -9 46 -11 59 -3 13 -12 51
-20 85 -8 34 -17 69 -19 78 -2 10 -16 62 -30 115 -28 103 -34 126 -39 158 -6
32 -16 88 -21 115 -3 14 -7 36 -10 50 -11 63 -39 181 -57 240 -11 36 -21 72
-23 80 -23 94 -149 357 -177 368 -4 2 -8 8 -8 13 0 12 -42 61 -103 118 -53 51
-174 121 -194 114 -7 -3 -13 -1 -13 3 0 5 -17 10 -38 12 -50 3 -132 31 -132
44 0 6 -3 9 -6 5 -3 -3 -27 8 -54 24 -26 16 -52 29 -58 29 -6 0 -12 3 -14 8
-2 4 -21 16 -43 27 -22 11 -42 22 -45 25 -9 9 -84 51 -112 63 -16 6 -28 15
-28 19 0 4 -6 8 -14 8 -8 0 -21 6 -28 13 -7 7 -28 19 -45 26 -18 7 -33 17 -33
20 0 4 -16 13 -35 21 -19 8 -35 17 -35 22 0 4 -6 8 -14 8 -7 0 -29 10 -47 23
-19 13 -59 36 -89 52 -30 17 -57 33 -60 36 -3 3 -10 8 -15 10 -20 8 -160 94
-173 106 -6 6 -21 15 -32 18 -11 3 -20 11 -20 16 0 5 -5 9 -10 9 -6 0 -34 15
-63 33 -69 45 -154 75 -197 72 -340 -27 -885 -26 -1245 1 -38 3 -97 7 -130 9
-33 2 -100 6 -150 9 -70 4 -98 2 -125 -11z"/>
<path d="M14046 7770 c-10 -27 -17 -51 -16 -52 0 -2 -6 -19 -14 -39 -8 -20
-12 -39 -9 -43 4 -3 2 -6 -3 -6 -5 0 -10 -8 -10 -17 -1 -10 -4 -31 -8 -48 -3
-16 -8 -41 -11 -55 -6 -29 -17 -177 -17 -235 -1 -52 12 -246 17 -265 2 -8 6
-35 9 -60 6 -45 8 -55 26 -145 5 -27 12 -63 15 -80 16 -89 50 -179 39 -104 -6
42 -13 122 -19 219 -3 41 -7 90 -9 108 -1 18 2 32 8 32 7 0 7 3 1 8 -13 9 -14
272 -1 264 6 -3 6 3 2 14 -5 10 -8 24 -7 29 0 6 3 37 5 70 2 33 7 92 10 130 3
39 8 122 12 185 3 63 8 118 10 122 3 4 1 9 -4 12 -5 3 -16 -17 -26 -44z"/>
<path d="M14207 7203 c-4 -7 -8 -24 -23 -88 -11 -49 -16 -89 -19 -138 -1 -32
-5 -60 -8 -63 -3 -4 -2 -16 3 -28 4 -13 4 -29 0 -36 -5 -8 -6 -19 -2 -24 3 -6
7 -28 8 -49 4 -55 12 -128 19 -157 3 -14 8 -43 10 -64 9 -77 14 -47 10 54 -2
56 -6 105 -9 108 -3 2 -1 14 5 25 8 15 8 18 -1 12 -9 -6 -9 -2 -1 14 7 11 8
21 3 21 -10 0 -9 50 1 67 4 6 3 14 -3 18 -6 4 -8 11 -4 16 3 5 8 56 10 112 3
56 6 126 8 155 4 50 2 61 -7 45z"/>
</g>
</svg>
